<?xml version="1.0" encoding="UTF-8"?>
<svg width="1407px" height="578px" viewBox="0 0 1407 578" version="1.1" xmlns="http://www.w3.org/2000/svg" xmlns:xlink="http://www.w3.org/1999/xlink">
    <!-- Generator: sketchtool 49.1 (51147) - http://www.bohemiancoding.com/sketch -->
    <title>85F3A7E1-5084-48A2-BDBC-74D587F82BFB</title>
    <desc>Created with sketchtool.</desc>
    <defs></defs>
    <g id="1440px" stroke="none" stroke-width="1" fill="none" fill-rule="evenodd">
        <g id="1440px---Home" transform="translate(-17.000000, -347.000000)">
            <g id="Hero_Home" transform="translate(16.000000, 347.000000)">
                <path d="M0,552.994915 C0,552.994915 55.1568916,554.979786 180.58968,480.516032 C313.348307,401.703225 387.970567,407.043711 462.389248,443.779872 C536.807929,480.516032 819.865074,511.26246 979.350724,448.744055 C1171.84828,373.285859 1249.26849,552.979863 1408,552.994915 L0,552.994915" id="BG-Mountains" fill="#007AEC"></path>
                <g id="Mountain-3" transform="translate(1081.000000, 489.000000)">
                    <polyline id="Fill-5" fill="#3B98FF" points="174.71 87.72 87.71 87.72 87.71 0.72 174.71 87.72"></polyline>
                    <polyline id="Fill-6" fill="#2E60EC" points="87.71 0.72 87.71 87.72 0.71 87.72 87.71 0.72"></polyline>
                </g>
                <g id="Mountain-2" transform="translate(1160.000000, 520.000000)">
                    <polyline id="Fill-7" fill="#3B98FF" points="112.71 56.72 56.71 56.72 56.71 0.72 112.71 56.72"></polyline>
                    <polyline id="Fill-8" fill="#2E60EC" points="56.71 0.72 56.71 56.72 0.71 56.72 56.71 0.72"></polyline>
                </g>
                <g id="Mountain-1" transform="translate(982.000000, 466.000000)">
                    <polyline id="Fill-9" fill="#3B98FF" points="222.206441 110.72 111.208694 110.72 111.208694 0.22 222.206441 110.72"></polyline>
                    <polyline id="Fill-10" fill="#2E60EC" points="111.208694 0.22 111.208694 110.72 0.210945946 110.72 111.208694 0.22"></polyline>
                </g>
                <g id="Main-Mountain" transform="translate(239.000000, 128.000000)">
                    <polyline id="Fill-16" fill="#00CF70" points="892.207337 448.718747 446.214039 448.718747 446.214039 2.22993289 892.207337 448.718747"></polyline>
                    <polyline id="Fill-17" fill="#009164" points="446.214039 2.22993289 446.214039 448.718747 0.215724719 448.718747 446.214039 2.22993289"></polyline>
                    <polygon id="Fill-18" fill="#FFF7E5" points="445.361409 42.3370211 446.599491 0.723221477 502.944506 58.7274123 502.944506 114.475915"></polygon>
                    <polyline id="Fill-19" fill="#E3D7B6" points="446.599491 0.723221477 409.375281 38.9705884 409.375281 79.451906 446.191728 40.0534116 446.599491 0.723221477"></polyline>
                    <polyline id="Fill-20" fill="#FFF7E5" points="464.419634 83.5250492 446.195669 58.0867383 446.195669 40.0534116 463.791356 62.9162506 464.419634 83.5250492"></polyline>
                    <polyline id="Fill-21" fill="#E3D7B6" points="446.195669 40.0534116 430.171165 51.3246174 430.171165 69.0345034 446.195669 58.0867383 446.195669 40.0534116"></polyline>
                    <polyline id="Fill-22" fill="#FFF7E5" points="474.5201 112.506141 446.195669 74.6465011 446.195669 56.614179 473.890842 91.8973423 474.5201 112.506141"></polyline>
                    <polyline id="Fill-23" fill="#E3D7B6" points="446.195669 56.614179 430.171165 67.8843803 430.171165 91.2996801 446.195669 74.6465011 446.195669 56.614179"></polyline>
                </g>
                <g id="Tree-7" transform="translate(822.000000, 496.000000)">
                    <polygon id="Fill-33" fill="#008070" points="23.653 80.72 27.994 80.72 27.994 31.882 23.653 31.882"></polygon>
                    <path d="M50.785,25.681 C50.785,39.467 39.609,50.642 25.823,50.642 C12.038,50.642 0.862,39.467 0.862,25.681 C0.862,11.895 12.038,0.72 25.823,0.72 C39.609,0.72 50.785,11.895 50.785,25.681" id="Fill-34" fill="#34E670"></path>
                    <path d="M26.195,0.731 L26.195,50.625 C25.998,50.636 25.812,50.636 25.615,50.636 C11.836,50.636 0.657,39.457 0.657,25.678 C0.657,11.899 11.836,0.72 25.615,0.72 C25.812,0.72 25.998,0.72 26.195,0.731" id="Fill-35" fill="#009788"></path>
                </g>
                <g id="Tree-6" transform="translate(741.000000, 519.000000)">
                    <polyline id="Fill-36" fill="#008070" points="21.386 57.649 18.295 57.748 17.184 22.969 20.274 22.87 21.386 57.649"></polyline>
                    <path d="M36.363,17.935 C36.678,27.752 28.974,35.965 19.156,36.279 C9.339,36.593 1.126,28.889 0.811,19.071 C0.498,9.254 8.202,1.041 18.019,0.727 C27.837,0.414 36.05,8.118 36.363,17.935" id="Fill-37" fill="#34E670"></path>
                    <path d="M18.285,0.727 L19.437,36.792 C19.295,36.805 19.161,36.81 19.018,36.814 C9.058,37.132 0.719,29.31 0.4,19.35 C0.082,9.39 7.905,1.051 17.865,0.732 C18.008,0.728 18.142,0.724 18.285,0.727" id="Fill-38" fill="#009788"></path>
                </g>
                <g id="Tree-5" transform="translate(702.000000, 489.000000)">
                    <polygon id="Fill-27" fill="#008070" points="13.458 88.22 16.99 88.22 16.99 48.489 13.458 48.489"></polygon>
                    <path d="M6.437,31.9 C6.437,31.9 4.853,11.836 15.414,0.22 L15.414,69.39 L1.157,69.39 C1.157,69.39 -2.011,51.965 3.269,43.517 C3.269,43.517 2.741,36.124 6.437,31.9" id="Fill-28" fill="#009788"></path>
                    <path d="M24.2,32.19 C24.2,32.19 25.784,12.125 15.225,0.509 L15.225,69.679 L29.48,69.679 C29.48,69.679 32.648,52.254 27.368,43.806 C27.368,43.806 27.896,36.414 24.2,32.19" id="Fill-29" fill="#34E670"></path>
                </g>
                <g id="Tree-4" transform="translate(632.000000, 462.000000)">
                    <polygon id="Fill-24" fill="#008070" points="20.267 114.72 25.443 114.72 25.443 56.479 20.267 56.479"></polygon>
                    <path d="M9.975,47.161 C9.975,47.161 7.652,17.748 23.133,0.72 L23.133,102.116 L2.234,102.116 C2.234,102.116 -2.409,76.574 5.331,64.189 C5.331,64.189 4.557,53.353 9.975,47.161" id="Fill-25" fill="#008070"></path>
                    <path d="M36.014,47.585 C36.014,47.585 38.335,18.172 22.855,1.144 L22.855,102.54 L43.754,102.54 C43.754,102.54 48.397,76.998 40.657,64.614 C40.657,64.614 41.432,53.777 36.014,47.585" id="Fill-26" fill="#00CF70"></path>
                </g>
                <g id="Tree-3" transform="translate(591.000000, 502.000000)">
                    <polygon id="Fill-30" fill="#008070" points="15.965 74.72 19.965 74.72 19.965 29.72 15.965 29.72"></polygon>
                    <path d="M8.013,30.367 C8.013,30.367 6.219,11.59 18.18,0.72 L18.18,65.449 L2.032,65.449 C2.032,65.449 -1.557,49.143 4.424,41.237 C4.424,41.237 3.826,34.319 8.013,30.367" id="Fill-31" fill="#008070"></path>
                    <path d="M28.131,30.638 C28.131,30.638 29.926,11.861 17.965,0.991 L17.965,65.72 L34.111,65.72 C34.111,65.72 37.7,49.414 31.72,41.508 C31.72,41.508 32.317,34.59 28.131,30.638" id="Fill-32" fill="#00CF70"></path>
                </g>
                <g id="Tree-2" transform="translate(389.000000, 502.000000)">
                    <polygon id="Fill-39" fill="#008070" points="21.382 74.72 25.382 74.72 25.382 29.72 21.382 29.72"></polygon>
                    <path d="M46.382,23.72 C46.382,36.422 36.084,46.72 23.382,46.72 C10.679,46.72 0.382,36.422 0.382,23.72 C0.382,11.017 10.679,0.72 23.382,0.72 C36.084,0.72 46.382,11.017 46.382,23.72" id="Fill-40" fill="#00CF70"></path>
                    <path d="M23.917,0.73 L23.917,46.709 C23.734,46.72 23.563,46.72 23.382,46.72 C10.684,46.72 0.382,36.418 0.382,23.72 C0.382,11.021 10.684,0.72 23.382,0.72 C23.563,0.72 23.734,0.72 23.917,0.73" id="Fill-41" fill="#008070"></path>
                </g>
                <g id="Tree-1" transform="translate(268.000000, 529.000000)">
                    <polygon id="Fill-200" fill="#008070" points="17.552 48.553 20.901 48.553 20.901 10.878 17.552 10.878"></polygon>
                    <path d="M36.68,18.925 C36.68,28.721 28.844,36.699 19.099,36.917 L19.099,0.934 C28.844,1.151 36.68,9.13 36.68,18.925" id="Fill-201" fill="#00CF70"></path>
                    <path d="M19.099,0.934 L19.099,36.917 C18.956,36.925 18.822,36.925 18.68,36.925 C8.742,36.925 0.68,28.863 0.68,18.925 C0.68,8.987 8.742,0.925 18.68,0.925 C18.822,0.925 18.956,0.925 19.099,0.934" id="Fill-202" fill="#008070"></path>
                </g>
                <g id="Heart" transform="translate(672.000000, 86.000000)">
                    <path d="M13.005,1.78 L13.005,22.4 L3.266,13.769 C3.125,13.65 2.995,13.53 2.865,13.41 L2.735,13.29 C1.295,11.89 0.405,9.93 0.405,7.76 C0.405,3.49 3.865,0.03 8.136,0.03 C9.976,0.03 11.676,0.689 13.005,1.78" id="Fill-42" fill="#FFAD22"></path>
                    <path d="M26.025,7.76 C26.025,8.84 25.806,9.88 25.405,10.81 C24.995,11.75 24.415,12.59 23.695,13.29 L23.645,13.33 C23.435,13.54 23.216,13.72 22.985,13.9 L13.016,22.41 L13.005,22.4 L13.005,1.78 L13.216,1.95 C14.575,0.76 16.346,0.03 18.295,0.03 C22.565,0.03 26.025,3.49 26.025,7.76" id="Fill-43" fill="#FFDC58"></path>
                </g>
                <g id="House" transform="translate(105.000000, 429.000000)">
                    <polyline id="Fill-44" fill="#B23345" points="26.4162015 78.8975135 0.647406716 108.17702 88.2229664 108.17702 88.2229664 78.8975135 26.4162015 78.8975135"></polyline>
                    <polygon id="Fill-45" fill="#BFB9E5" points="0.647406716 148.718108 110.678444 148.718108 110.678444 108.17702 0.647406716 108.17702"></polygon>
                    <polyline id="Fill-46" fill="#FFF7E5" points="181.354179 148.718108 268.713937 148.718108 268.713937 74.2382432 181.354179 74.4808716 181.354179 148.718108"></polyline>
                    <polyline id="Fill-47" fill="#FFF7E5" points="268.713937 74.2382432 246.367866 37.3134257 225.112851 0.388608108 203.85884 37.3134257 181.354179 75.3335946 225.033556 78.6186419 268.713937 74.2382432"></polyline>
                    <polyline id="Fill-48" fill="#B23345" points="225.033556 0.85372973 122.385966 0.85372973 75.4294067 75.3335946 181.353175 75.3335946 225.033556 0.85372973"></polyline>
                    <polygon id="Fill-49" fill="#BFB9E5" points="75.4294067 148.718108 181.354179 148.718108 181.354179 75.3335946 75.4294067 75.3335946"></polygon>
                    <polygon id="Fill-50" fill="#BFB9E5" points="212.548142 148.718108 238.558836 148.718108 238.558836 69.5195743 212.548142 69.5195743"></polygon>
                    <polygon id="Fill-51" fill="#FFF7E5" points="6.25224254 148.718108 12.1993507 148.718108 12.1993507 127.159419 6.25224254 127.159419"></polygon>
                    <polyline id="Fill-52" fill="#FFF7E5" points="6.25224254 127.159419 9.22629851 122.205169 12.1993507 127.159419 6.25224254 127.159419"></polyline>
                    <polygon id="Fill-53" fill="#FFF7E5" points="18.4776903 148.718108 24.4258022 148.718108 24.4258022 127.159419 18.4776903 127.159419"></polygon>
                    <polyline id="Fill-54" fill="#FFF7E5" points="18.4776903 127.159419 21.4517463 122.205169 24.4258022 127.159419 18.4776903 127.159419"></polyline>
                    <polygon id="Fill-55" fill="#FFF7E5" points="30.7031381 148.718108 36.65125 148.718108 36.65125 127.159419 30.7031381 127.159419"></polygon>
                    <polyline id="Fill-56" fill="#FFF7E5" points="30.7031381 127.159419 33.677194 122.205169 36.65125 127.159419 30.7031381 127.159419"></polyline>
                    <polygon id="Fill-57" fill="#FFF7E5" points="42.9285858 148.718108 48.875694 148.718108 48.875694 127.159419 42.9285858 127.159419"></polygon>
                    <polyline id="Fill-58" fill="#FFF7E5" points="42.9285858 127.159419 45.9016381 122.205169 48.875694 127.159419 42.9285858 127.159419"></polyline>
                    <polygon id="Fill-59" fill="#FFF7E5" points="55.1540336 148.718108 61.1011418 148.718108 61.1011418 127.159419 55.1540336 127.159419"></polygon>
                    <polyline id="Fill-60" fill="#FFF7E5" points="55.1540336 127.159419 58.1280896 122.205169 61.1011418 127.159419 55.1540336 127.159419"></polyline>
                    <polygon id="Fill-61" fill="#FFF7E5" points="67.3794813 148.718108 73.3275933 148.718108 73.3275933 127.159419 67.3794813 127.159419"></polygon>
                    <polyline id="Fill-62" fill="#FFF7E5" points="67.3794813 127.159419 70.3535373 122.205169 73.3275933 127.159419 67.3794813 127.159419"></polyline>
                    <polygon id="Fill-63" fill="#FFF7E5" points="79.6049291 148.718108 85.5520373 148.718108 85.5520373 127.159419 79.6049291 127.159419"></polygon>
                    <polyline id="Fill-64" fill="#FFF7E5" points="79.6049291 127.159419 82.5779813 122.205169 85.5520373 127.159419 79.6049291 127.159419"></polyline>
                    <polygon id="Fill-65" fill="#FFF7E5" points="91.8303769 148.718108 97.7774851 148.718108 97.7774851 127.159419 91.8303769 127.159419"></polygon>
                    <polyline id="Fill-66" fill="#FFF7E5" points="91.8303769 127.159419 94.8034291 122.205169 97.7774851 127.159419 91.8303769 127.159419"></polyline>
                    <polygon id="Fill-67" fill="#FFF7E5" points="104.055825 148.718108 110.002933 148.718108 110.002933 127.159419 104.055825 127.159419"></polygon>
                    <polyline id="Fill-68" fill="#FFF7E5" points="104.055825 127.159419 107.029881 122.205169 110.002933 127.159419 104.055825 127.159419"></polyline>
                    <polygon id="Fill-69" fill="#FFF7E5" points="116.281272 148.718108 122.228381 148.718108 122.228381 127.159419 116.281272 127.159419"></polygon>
                    <polyline id="Fill-70" fill="#FFF7E5" points="116.281272 127.159419 119.254325 122.205169 122.228381 127.159419 116.281272 127.159419"></polyline>
                    <polygon id="Fill-71" fill="#FFF7E5" points="128.505716 148.718108 134.453828 148.718108 134.453828 127.159419 128.505716 127.159419"></polygon>
                    <polyline id="Fill-72" fill="#FFF7E5" points="128.505716 127.159419 131.479772 122.205169 134.453828 127.159419 128.505716 127.159419"></polyline>
                    <polygon id="Fill-73" fill="#FFF7E5" points="140.732168 148.718108 146.679276 148.718108 146.679276 127.159419 140.732168 127.159419"></polygon>
                    <polyline id="Fill-74" fill="#FFF7E5" points="140.732168 127.159419 143.70522 122.205169 146.679276 127.159419 140.732168 127.159419"></polyline>
                    <polygon id="Fill-75" fill="#FFF7E5" points="9.22629851 134.577203 143.70522 134.577203 143.70522 131.04248 9.22629851 131.04248"></polygon>
                    <polyline id="Fill-76" fill="#E65A6B" points="136.571701 39.5041284 118.068918 39.5041284 127.32031 24.6947365 146.503623 24.6947365 136.571701 39.5041284"></polyline>
                    <polyline id="Fill-77" fill="#E6776B" points="164.565769 26.927723 152.526011 26.927723 158.545388 17.2900405 171.028795 17.2900405 164.565769 26.927723"></polyline>
                    <polyline id="Fill-78" fill="#E65A6B" points="155.314377 42.9109932 143.273616 42.9109932 149.293996 33.2753243 161.777403 33.2753243 155.314377 42.9109932"></polyline>
                </g>
                <g id="Man-5" transform="translate(942.000000, 476.000000)">
                    <polyline id="Fill-79" fill="#323760" points="1.33 33.97 4.13 42.097 9.19 42.498 6.25 33.97 1.33 33.97"></polyline>
                    <path d="M40.94,94.682 L31.49,94.682 C31.49,94.682 23.48,94.813 23.48,98.226 L40.94,98.226 L40.94,94.682" id="Fill-80" fill="#4A45A0"></path>
                    <polygon id="Fill-81" fill="#8574DF" points="23.48 100.72 40.94 100.72 40.94 98.226 23.48 98.226"></polygon>
                    <polygon id="Fill-82" fill="#FFC8AA" points="26.5 23.283 31.49 23.283 31.49 18.296 26.5 18.296"></polygon>
                    <polygon id="Fill-83" fill="#4A5BA0" points="30.96 94.682 40.94 94.682 40.94 60.033 30.96 60.033"></polygon>
                    <path d="M31.49,94.682 L22.04,94.682 C22.04,94.682 14.03,94.813 14.03,98.226 L31.49,98.226 L31.49,94.682" id="Fill-84" fill="#4A5BA0"></path>
                    <polygon id="Fill-85" fill="#8581DF" points="14.03 100.72 31.49 100.72 31.49 98.226 14.03 98.226"></polygon>
                    <polygon id="Fill-86" fill="#323760" points="21.51 94.682 31.49 94.682 31.49 60.033 21.51 60.033"></polygon>
                    <path d="M40.94,64.531 L16.09,64.531 L16.09,30.11 C16.09,25.47 19.85,21.708 24.49,21.708 L32.54,21.708 C37.18,21.708 40.94,25.47 40.94,30.11 L40.94,64.531" id="Fill-87" fill="#2299F8"></path>
                    <path d="M17.77,10.848 C17.77,10.848 14.58,15.83 19.89,16.669 L17.77,10.848" id="Fill-88" fill="#FF9C70"></path>
                    <path d="M15.97,48.71 C15.72,48.71 15.48,48.668 15.24,48.582 L3.98,44.48 C2.88,44.079 2.31,42.861 2.71,41.76 C3.11,40.659 4.33,40.091 5.43,40.492 L14.68,43.86 L17.13,36.902 C17.52,35.796 18.73,35.214 19.83,35.604 C20.94,35.993 21.52,37.205 21.13,38.31 L17.97,47.292 C17.78,47.827 17.39,48.265 16.88,48.507 C16.59,48.642 16.28,48.71 15.97,48.71" id="Fill-89" fill="#FFC8AA"></path>
                    <path d="M24.18,28.174 C26.36,28.906 27.54,31.266 26.8,33.445 L23.25,44.03 L15.36,41.381 L18.91,30.796 C19.64,28.617 22,27.443 24.18,28.174" id="Fill-90" fill="#22B9F8"></path>
                    <path d="M6.8,41.498 C6.8,43.285 5.35,44.734 3.56,44.734 C1.78,44.734 0.33,43.285 0.33,41.498 C0.33,39.711 1.78,38.262 3.56,38.262 C5.35,38.262 6.8,39.711 6.8,41.498" id="Fill-91" fill="#FFC8AA"></path>
                    <path d="M35.95,10.848 C35.95,15.867 31.88,19.936 26.86,19.936 C21.84,19.936 17.77,15.867 17.77,10.848 C17.77,5.828 21.84,1.759 26.86,1.759 C31.88,1.759 35.95,5.828 35.95,10.848" id="Fill-92" fill="#FFC8AA"></path>
                    <path d="M19.89,1.093 C19.89,1.093 21.32,7.534 28.51,9.723 C32.21,10.848 30.44,17.508 26.5,14.358 C26.5,14.358 38.09,23.173 37,9.195 C35.95,-4.232 22.72,3.315 19.89,1.093" id="Fill-93" fill="#E76753"></path>
                </g>
                <g id="Woman" transform="translate(889.000000, 477.000000)">
                    <polygon id="Fill-94" fill="#FFB370" points="17.61 22.283 22.6 22.283 22.6 17.296 17.61 17.296"></polygon>
                    <polygon id="Fill-95" fill="#FFB370" points="20.61 96.72 25.6 96.72 25.6 59.033 20.61 59.033"></polygon>
                    <polygon id="Fill-96" fill="#FFB370" points="11.616 96.537 16.603 96.537 16.603 59.033 11.616 59.033"></polygon>
                    <path d="M11.161,63.531 L28.01,63.531 L33.01,29.11 C33.01,24.47 29.25,20.708 24.61,20.708 L16.562,20.708 C11.923,20.708 8.161,24.47 8.161,29.11 L11.161,63.531" id="Fill-97" fill="#DE53AE"></path>
                    <path d="M22.71,42.12 L21.768,42.12 L21.768,28.064 C21.768,24.563 24.3,21.715 27.42,21.715 C31.13,21.715 31.13,26.682 31.13,28.803 L30.19,28.803 C30.19,24.493 29.36,22.653 27.42,22.653 C24.82,22.653 22.71,25.081 22.71,28.064 L22.71,42.12" id="Fill-98" fill="#820570"></path>
                    <polyline id="Fill-99" fill="#DCE8F6" points="32.75 80.829 7.161 80.829 10.161 50.882 29.75 50.882 32.75 80.829"></polyline>
                    <path d="M31.33,9.848 C31.33,9.848 34.52,14.83 29.21,15.669 L31.33,9.848" id="Fill-100" fill="#FF9C70"></path>
                    <path d="M30.23,48.794 L21.03,48.794 C19.89,48.794 18.965,47.869 18.965,46.728 L18.965,39.886 L32.29,39.886 L32.29,46.728 C32.29,47.869 31.37,48.794 30.23,48.794" id="Fill-101" fill="#820570"></path>
                    <polyline id="Fill-102" fill="#FFB370" points="31.17 52.924 27.21 30.279 31.14 29.588 35.11 52.234 31.17 52.924"></polyline>
                    <path d="M27.91,22.374 C25.64,22.753 24.11,24.898 24.49,27.166 L26.33,38.179 L34.54,36.807 L32.7,25.794 C32.32,23.527 30.18,21.996 27.91,22.374" id="Fill-103" fill="#DEA7AE"></path>
                    <path d="M37.06,53.541 C37.06,55.308 35.63,56.74 33.86,56.74 C32.09,56.74 30.66,55.308 30.66,53.541 C30.66,51.774 32.09,50.342 33.86,50.342 C35.63,50.342 37.06,51.774 37.06,53.541" id="Fill-104" fill="#FFB370"></path>
                    <path d="M13.148,9.848 C13.148,14.867 17.218,18.936 22.24,18.936 C27.26,18.936 31.33,14.867 31.33,9.848 C31.33,4.828 27.26,0.759 22.24,0.759 C17.218,0.759 13.148,4.828 13.148,9.848" id="Fill-105" fill="#FFB370"></path>
                    <path d="M16.958,95.537 L12.288,95.537 C11.251,95.537 10.411,96.377 10.411,97.414 L10.411,99.72 L22.5,99.72 L22.5,97.992 C22.5,95.627 16.958,95.537 16.958,95.537" id="Fill-106" fill="#7055DF"></path>
                    <path d="M26.58,95.537 L21.913,95.537 C20.876,95.537 20.036,96.377 20.036,97.414 L20.036,99.72 L32.13,99.72 L32.13,97.992 C32.13,95.627 26.58,95.537 26.58,95.537" id="Fill-107" fill="#8574DF"></path>
                    <path d="M31.33,5.206 C31.33,5.206 27.73,11.024 23.1,8.305 C18.477,5.586 18.761,10.683 19.953,11.412 C21.146,12.14 21.6,16.384 17.61,17.296 C13.622,18.207 10.49,12.868 13.148,6.072 C15.807,-0.725 24.12,0.958 24.12,0.958 C24.12,0.958 31.83,4.372 34.5,1.945 L31.33,5.206" id="Fill-108" fill="#323760"></path>
                    <path d="M12.377,9.121 C12.377,9.121 7.167,8.313 6.024,13.72 C4.882,19.126 0.356,22.313 0.356,22.313 C0.356,22.313 13.877,22.915 12.377,9.121" id="Fill-109" fill="#323760"></path>
                </g>
                <g id="Man-4" transform="translate(996.000000, 477.000000)">
                    <polyline id="Fill-138" fill="#FFB370" points="24.19 22.468 17.83 22.468 17.83 18.444 24.19 14.557 24.19 22.468"></polyline>
                    <polygon id="Fill-139" fill="#2C2C47" points="8.37 54.488 29.28 54.488 29.28 50.259 8.37 50.259"></polygon>
                    <path d="M27.8,10.608 C27.8,15.568 23.78,19.589 18.82,19.589 C13.86,19.589 9.84,15.568 9.84,10.608 C9.84,5.648 13.86,1.627 18.82,1.627 C23.78,1.627 27.8,5.648 27.8,10.608" id="Fill-140" fill="#FFB370"></path>
                    <path d="M29.28,54.488 L8.37,54.488 L8.37,27.206 C8.37,24.003 10.99,21.382 14.19,21.382 L23.45,21.382 C26.66,21.382 29.28,24.003 29.28,27.206 L29.28,54.488" id="Fill-141" fill="#9BA3D3"></path>
                    <path d="M10.19,8.148 C10.19,8.148 5.56,14.673 10.89,14.557 L10.19,8.148" id="Fill-142" fill="#FF9C70"></path>
                    <path d="M8.37,0.545 C8.37,0.545 7.44,4.314 12.06,4.706 C16.68,5.099 17.93,6.496 17.83,9.213 C17.73,11.93 17.73,11.93 17.73,11.93 L19.66,11.93 C19.66,11.93 19.03,8.598 21.01,9.213 C22.98,9.828 23.16,13.856 20.18,14.557 L24.19,17.812 C24.19,17.812 27.9,15.767 27.8,10.608 C27.71,5.45 25.13,1.627 19.13,1.421 C13.13,1.215 9.34,3.173 8.37,0.545" id="Fill-143" fill="#323760"></path>
                    <path d="M1.79,29.881 C0.07,32.657 0.48,36.011 1.53,41.615 C2.64,47.541 5.57,44.536 8.37,39.554 C11.18,34.573 5.65,37.935 5.65,37.935 L3.02,28.176 C3.02,28.176 2.19,29.244 1.79,29.881" id="Fill-144" fill="#9BA3D3"></path>
                    <path d="M1.09,19.589 L4.24,35.661 C4.24,35.661 9.11,24.383 11.5,22.051 L10.89,19.589 L1.09,19.589" id="Fill-145" fill="#FFF7E5"></path>
                    <polyline id="Fill-146" fill="#9BA3D3" points="9.41 24.977 1.97 39.554 5.03 44.155 12.48 31.969 9.41 24.977"></polyline>
                    <path d="M16.65,21.382 C16.65,21.382 16.35,38.807 8.37,39.554 L8.37,50.259 L29.28,50.259 L29.28,39.554 C29.28,39.554 23.62,40.988 24.31,21.445 L21.23,21.382 C21.23,21.382 20.69,26.018 20.47,27.625 L19.31,21.382 L16.65,21.382" id="Fill-147" fill="#323760"></path>
                    <polygon id="Fill-148" fill="#5A589C" points="8.37 93.682 17.83 93.682 17.83 54.488 8.37 54.488"></polygon>
                    <polygon id="Fill-149" fill="#323760" points="17.83 93.682 29.28 93.682 29.28 54.488 17.83 54.488"></polygon>
                    <path d="M10.28,99.72 C10.28,99.72 8.57,93.682 18.03,93.682 C27.49,93.682 29.49,93.682 29.49,93.682 L29.49,99.72 L10.28,99.72" id="Fill-150" fill="#22272B"></path>
                    <path d="M0.62,99.72 C0.62,99.72 -1.09,93.682 8.37,93.682 C17.83,93.682 17.83,93.682 17.83,93.682 L17.83,99.72 L0.62,99.72" id="Fill-151" fill="#3D445C"></path>
                </g>
                <g id="Man-3" transform="translate(1041.000000, 477.000000)">
                    <polyline id="Fill-160" fill="#FFC8AA" points="18.99 41.456 6.18 57.051 2.92 54.371 15.73 38.776 18.99 41.456"></polyline>
                    <path d="M6.78,56.541 C6.94,58.219 5.72,59.711 4.04,59.875 C2.36,60.039 0.87,58.812 0.71,57.136 C0.54,55.459 1.77,53.966 3.45,53.802 C5.12,53.638 6.61,54.865 6.78,56.541" id="Fill-161" fill="#FFC8AA"></path>
                    <path d="M25.6,36.153 L14.95,49.113 L9,44.226 L19.65,31.267 C20.98,29.65 23.39,29.414 25.01,30.743 L25.08,30.799 C26.69,32.127 26.93,34.537 25.6,36.153" id="Fill-162" fill="#AFD5E8"></path>
                    <path d="M35.23,93.682 L25.78,93.682 C25.78,93.682 17.78,93.813 17.78,97.226 L35.23,97.226 L35.23,93.682" id="Fill-163" fill="#574D8D"></path>
                    <polygon id="Fill-164" fill="#8574DF" points="17.78 99.72 35.23 99.72 35.23 97.226 17.78 97.226"></polygon>
                    <polygon id="Fill-165" fill="#FFC8AA" points="20.8 22.283 25.78 22.283 25.78 17.296 20.8 17.296"></polygon>
                    <polygon id="Fill-166" fill="#4A5BDC" points="25.26 93.682 35.23 93.682 35.23 59.033 25.26 59.033"></polygon>
                    <path d="M25.78,93.682 L16.33,93.682 C16.33,93.682 8.33,93.813 8.33,97.226 L25.78,97.226 L25.78,93.682" id="Fill-167" fill="#303462"></path>
                    <polygon id="Fill-168" fill="#8581DF" points="8.33 99.72 25.78 99.72 25.78 97.226 8.33 97.226"></polygon>
                    <polygon id="Fill-169" fill="#325CAD" points="15.81 93.682 25.78 93.682 25.78 59.033 15.81 59.033"></polygon>
                    <path d="M35.23,59.033 L13.58,59.033 L13.58,32.46 C13.58,25.97 18.84,20.708 25.33,20.708 L26.83,20.708 C31.47,20.708 35.23,24.47 35.23,29.11 L35.23,59.033" id="Fill-170" fill="#DCF8F8"></path>
                    <path d="M12.07,9.848 C12.07,9.848 8.88,14.83 14.18,15.669 L12.07,9.848" id="Fill-171" fill="#FF9C70"></path>
                    <path d="M30.25,9.848 C30.25,14.867 26.18,18.936 21.16,18.936 C16.14,18.936 12.07,14.867 12.07,9.848 C12.07,4.828 16.14,0.759 21.16,0.759 C26.18,0.759 30.25,4.828 30.25,9.848" id="Fill-172" fill="#FFC8AA"></path>
                    <path d="M29.81,9.356 L8.06,9.356 C7.57,9.356 7.18,8.962 7.18,8.481 C7.18,7.999 7.57,7.606 8.06,7.606 L29.81,7.606 C30.29,7.606 30.68,7.999 30.68,8.481 C30.68,8.962 30.29,9.356 29.81,9.356" id="Fill-173" fill="#303462"></path>
                    <path d="M30.25,8.976 C30.25,4.096 26.15,0.139 21.1,0.139 C16.06,0.139 11.96,4.096 11.96,8.976 L30.25,8.976" id="Fill-174" fill="#303462"></path>
                    <path d="M30.54,33.881 L27.48,50.374 L19.91,48.97 L22.97,32.476 C23.36,30.419 25.35,29.049 27.41,29.431 L27.49,29.447 C29.55,29.829 30.92,31.824 30.54,33.881" id="Fill-175" fill="#DCF8F8"></path>
                    <path d="M16.63,29.585 C15.6,29.585 14.51,29.361 13.38,28.838 C13.14,28.728 13.03,28.444 13.14,28.204 C13.25,27.962 13.54,27.859 13.78,27.969 C15.54,28.783 17.34,28.845 19.11,28.15 C23.53,26.409 26.36,20.601 26.38,20.544 L26.82,20.725 L27.12,20.324 C27.49,20.598 27.38,20.834 26.58,22.18 C25.42,24.131 21.72,29.585 16.63,29.585" id="Fill-176" fill="#FFC84F"></path>
                    <polyline id="Fill-177" fill="#FFC8AA" points="28.1 38.327 21.51 57.405 17.52 56.026 24.11 36.948 28.1 38.327"></polyline>
                    <path d="M21.89,56.718 C22.63,58.233 22,60.059 20.48,60.796 C18.97,61.533 17.14,60.902 16.41,59.387 C15.67,57.872 16.3,56.046 17.82,55.309 C19.33,54.572 21.16,55.203 21.89,56.718" id="Fill-178" fill="#FFC8AA"></path>
                    <path d="M32.45,31.057 L26.97,46.912 L19.7,44.398 L25.18,28.543 C25.86,26.565 28.04,25.507 30.01,26.19 L30.1,26.219 C32.08,26.902 33.13,29.08 32.45,31.057" id="Fill-179" fill="#AFD5E8"></path>
                </g>
                <g id="Bench" transform="translate(490.000000, 541.000000)">
                    <polygon id="Fill-152" fill="#FFF7E5" points="7.057 35.72 16.691 35.72 16.691 14.282 7.057 14.282"></polygon>
                    <polygon id="Fill-153" fill="#FFF7E5" points="76.811 35.72 86.446 35.72 86.446 14.282 76.811 14.282"></polygon>
                    <polygon id="Fill-154" fill="#FFF7E5" points="0.505 14.909 92.998 14.909 92.998 7.558 0.505 7.558"></polygon>
                    <polygon id="Fill-155" fill="#E0D4BB" points="7.057 20.812 16.691 20.812 16.691 14.909 7.057 14.909"></polygon>
                    <polygon id="Fill-156" fill="#E0D4BB" points="76.811 20.812 86.446 20.812 86.446 14.909 76.811 14.909"></polygon>
                    <polygon id="Fill-157" fill="#FE9570" points="74.338 7.558 87.338 7.558 87.338 5.55 74.338 5.55"></polygon>
                    <polygon id="Fill-158" fill="#FEC15D" points="76.811 5.508 89.811 5.508 89.811 3.5 76.811 3.5"></polygon>
                    <polyline id="Fill-159" fill="#E6E470" points="7.588 0.386 8.588 7.553 12.172 7.553 13.172 0.303 7.588 0.386"></polyline>
                </g>
                <g id="Man-2" transform="translate(509.000000, 496.000000)">
                    <polyline id="Fill-180" fill="#FFB370" points="7.48 50.521 3.037 49.317 7.721 32.051 12.163 33.256 7.48 50.521"></polyline>
                    <path d="M12.29,39.012 L5.336,37.125 L8.718,24.656 C9.236,22.743 11.226,21.603 13.138,22.122 C15.051,22.641 16.19,24.63 15.672,26.542 L12.29,39.012" id="Fill-181" fill="#0099F8"></path>
                    <path d="M8.886,52.6 C8.886,50.336 7.051,48.5 4.786,48.5 C2.522,48.5 0.686,50.336 0.686,52.6 L8.886,52.6" id="Fill-182" fill="#FFB370"></path>
                    <polyline id="Fill-183" fill="#FFB370" points="40.385 50.521 44.827 49.317 40.143 32.051 35.701 33.256 40.385 50.521"></polyline>
                    <path d="M35.574,39.012 L42.529,37.125 L39.146,24.656 C38.628,22.743 36.639,21.603 34.727,22.122 C32.813,22.641 31.674,24.63 32.192,26.542 L35.574,39.012" id="Fill-184" fill="#0099F8"></path>
                    <path d="M38.978,52.6 C38.978,50.336 40.813,48.5 43.078,48.5 C45.342,48.5 47.178,50.336 47.178,52.6 L38.978,52.6" id="Fill-185" fill="#FFB370"></path>
                    <path d="M38.527,52.558 L10.04,52.558 L10.04,25.622 C10.04,21.771 13.161,18.65 17.012,18.65 L31.556,18.65 C35.406,18.65 38.527,21.771 38.527,25.622 L38.527,52.558" id="Fill-186" fill="#2299F8"></path>
                    <polygon id="Fill-187" fill="#22C0E7" points="15.258 52.558 33.31 52.558 33.31 18.65 15.258 18.65"></polygon>
                    <path d="M20.702,47.177 L13.865,47.177 C12.871,47.177 12.066,47.982 12.066,48.976 L12.066,78.921 C12.066,79.914 12.871,80.72 13.865,80.72 L20.702,80.72 C21.696,80.72 22.502,79.914 22.502,78.921 L22.502,48.976 C22.502,47.982 21.696,47.177 20.702,47.177" id="Fill-188" fill="#323760"></path>
                    <path d="M35.059,47.177 L28.461,47.177 C27.4,47.177 26.542,48.036 26.542,49.096 L26.542,80.72 L36.977,80.72 L36.977,49.096 C36.977,48.036 36.118,47.177 35.059,47.177" id="Fill-189" fill="#323760"></path>
                    <path d="M23.719,79.415 C23.719,77.622 22.251,76.154 20.458,76.154 L13.924,76.154 C12.13,76.154 10.662,77.622 10.662,79.415 L23.719,79.415" id="Fill-190" fill="#2299F8"></path>
                    <polygon id="Fill-191" fill="#FFF7E5" points="10.662 80.72 23.719 80.72 23.719 79.415 10.662 79.415"></polygon>
                    <polygon id="Fill-192" fill="#FFB370" points="21.508 19.404 27.347 19.404 27.347 15.315 21.508 15.315"></polygon>
                    <path d="M38.287,79.415 C38.287,77.622 36.82,76.154 35.026,76.154 L28.492,76.154 C26.699,76.154 25.231,77.622 25.231,79.415 L38.287,79.415" id="Fill-193" fill="#2299F8"></path>
                    <polygon id="Fill-194" fill="#FFF7E5" points="25.231 80.72 38.287 80.72 38.287 79.415 25.231 79.415"></polygon>
                    <polyline id="Fill-195" fill="#2299F8" points="20.19 15.962 16.425 19.45 23.259 23.076 24.283 19.519 20.19 15.962"></polyline>
                    <polyline id="Fill-196" fill="#2299F8" points="28.377 15.962 32.143 19.45 25.308 23.076 24.283 19.519 28.377 15.962"></polyline>
                    <path d="M32.251,8.976 C32.251,13.296 28.748,16.799 24.427,16.799 C20.106,16.799 16.603,13.296 16.603,8.976 C16.603,4.655 20.106,1.152 24.427,1.152 C28.748,1.152 32.251,4.655 32.251,8.976" id="Fill-197" fill="#FFB370"></path>
                    <path d="M16.041,11.025 C16.041,11.025 21.756,11.15 24.24,6.429 C26.726,1.708 29.334,4.689 29.707,6.056 C30.08,7.423 31.819,5.808 31.819,5.808 C31.819,5.808 30.328,-0.652 22.129,1.087 C13.93,2.826 16.041,11.025 16.041,11.025" id="Fill-198" fill="#323760"></path>
                    <path d="M25.358,12.392 C25.358,13.078 24.803,13.634 24.116,13.634 C23.431,13.634 22.874,13.078 22.874,12.392 C22.874,11.706 24.116,9.907 24.116,9.907 C24.116,9.907 25.358,11.706 25.358,12.392" id="Fill-199" fill="#F19260"></path>
                </g>
                <g id="Man-1" transform="translate(435.000000, 478.000000)">
                    <polyline id="Fill-203" fill="#FFB370" points="43.803 21.468 37.444 21.468 37.444 17.444 43.803 13.557 43.803 21.468"></polyline>
                    <polygon id="Fill-204" fill="#2C2C47" points="27.986 53.488 48.893 53.488 48.893 49.259 27.986 49.259"></polygon>
                    <path d="M47.421,9.608 C47.421,14.568 43.399,18.589 38.439,18.589 C33.479,18.589 29.459,14.568 29.459,9.608 C29.459,4.648 33.479,0.627 38.439,0.627 C43.399,0.627 47.421,4.648 47.421,9.608" id="Fill-205" fill="#FFB370"></path>
                    <path d="M48.893,53.488 L27.986,53.488 L27.986,26.206 C27.986,23.003 30.607,20.382 33.81,20.382 L43.069,20.382 C46.272,20.382 48.893,23.003 48.893,26.206 L48.893,53.488" id="Fill-206" fill="#5C3ED3"></path>
                    <path d="M29.803,7.148 C29.803,7.148 25.179,13.673 30.504,13.557 L29.803,7.148" id="Fill-207" fill="#FF9C70"></path>
                    <polygon id="Fill-208" fill="#2A2F54" points="27.986 92.682 37.444 92.682 37.444 53.488 27.986 53.488"></polygon>
                    <polygon id="Fill-209" fill="#16192D" points="37.444 92.682 48.893 92.682 48.893 53.488 37.444 53.488"></polygon>
                    <path d="M29.895,98.72 C29.895,98.72 28.188,92.682 37.646,92.682 C47.103,92.682 49.103,92.682 49.103,92.682 L49.103,98.72 L29.895,98.72" id="Fill-210" fill="#22272B"></path>
                    <path d="M20.236,98.72 C20.236,98.72 18.529,92.682 27.986,92.682 C37.444,92.682 37.444,92.682 37.444,92.682 L37.444,98.72 L20.236,98.72" id="Fill-211" fill="#3D445C"></path>
                    <path d="M32.358,29.174 L21.512,42.84 C20.215,44.474 17.816,44.749 16.183,43.453 L15.746,43.106 C14.112,41.81 13.836,39.411 15.134,37.777 L29.426,22.332 C30.723,20.698 33.121,20.423 34.755,21.72 L35.19,22.066 C36.825,23.363 33.656,27.54 32.358,29.174" id="Fill-212" fill="#5C3ED3"></path>
                    <path d="M7.172,30.803 C7.172,32.69 5.604,34.22 3.672,34.22 C1.738,34.22 0.172,32.69 0.172,30.803 C0.172,28.916 1.738,27.386 3.672,27.386 C5.604,27.386 7.172,28.916 7.172,30.803" id="Fill-213" fill="#FFB370"></path>
                    <polyline id="Fill-214" fill="#5C3ED3" points="17.042 43.997 2.706 34.941 7.055 28.056 21.391 37.111 17.042 43.997"></polyline>
                    <path d="M43.505,18.886 L37.338,18.886 C36.604,18.886 36.005,19.486 36.005,20.22 C36.005,20.953 36.604,21.553 37.338,21.553 L43.505,21.553 C44.238,21.553 44.838,20.953 44.838,20.22 C44.838,19.486 44.238,18.886 43.505,18.886" id="Fill-215" fill="#5C3ED3"></path>
                    <path d="M5.134,26.118 C5.134,26.118 3.998,22.38 8.074,20.395 C8.074,20.395 9.451,24.792 5.134,26.118" id="Fill-216" fill="#00CF70"></path>
                    <polyline id="Fill-217" fill="#00CF70" points="4.751 27.701 4.308 27.47 5.947 24.318 6.391 24.548 4.751 27.701"></polyline>
                    <path d="M29.005,2.97 C29.005,2.97 31.38,9.345 39.38,8.22 C47.38,7.095 43.255,15.47 39.005,12.595 C39.005,12.595 40.755,16.595 44.505,16.095 C48.255,15.595 50.928,4.093 40.88,0.845 C35.338,-0.947 31.672,2.386 29.005,2.97" id="Fill-218" fill="#441C40"></path>
                </g>
                <g id="Circuitry" transform="translate(575.000000, 368.000000)">
                    <polygon id="Fill-219" fill="#005D46" points="0.505 68.22 64.505 68.22 64.505 0.72 0.505 0.72"></polygon>
                    <polyline id="Fill-220" fill="#004E46" points="2.005 0.72 64.505 68.22 64.505 0.72 2.005 0.72"></polyline>
                    <path d="M61.428,16.106 C59.027,16.106 57.731,16.016 57.043,15.331 C56.676,14.966 56.505,14.455 56.505,13.72 L56.505,6.886 L57.255,6.886 L57.255,13.72 C57.255,14.248 57.352,14.581 57.571,14.799 C58.153,15.378 59.772,15.365 62.721,15.351 C63.268,15.348 63.862,15.345 64.505,15.345 L64.505,16.095 C63.863,16.095 63.271,16.098 62.726,16.101 C62.261,16.104 61.828,16.106 61.428,16.106" id="Fill-221" fill="#E9CA3C"></path>
                    <path d="M61.601,12.786 C59.802,12.786 59.034,12.719 58.584,12.272 C58.172,11.862 58.172,11.248 58.172,10.398 L58.172,3.565 L58.922,3.565 L58.922,10.398 C58.922,11.113 58.931,11.56 59.113,11.74 C59.426,12.051 60.594,12.045 62.729,12.03 C63.253,12.027 63.842,12.023 64.505,12.023 L64.505,12.773 C63.844,12.773 63.256,12.777 62.733,12.78 C62.316,12.783 61.94,12.786 61.601,12.786" id="Fill-222" fill="#81CA3C"></path>
                    <path d="M64.505,7.988 L56.311,7.988 C55.038,7.988 54.005,6.955 54.005,5.681 L54.005,0.72 L64.505,0.72 L64.505,7.988" id="Fill-223" fill="#13153C"></path>
                    <path d="M56.505,3.553 C56.505,3.737 56.355,3.886 56.172,3.886 C55.987,3.886 55.838,3.737 55.838,3.553 C55.838,3.369 55.987,3.22 56.172,3.22 C56.355,3.22 56.505,3.369 56.505,3.553" id="Fill-224" fill="#E9613C"></path>
                    <path d="M57.88,3.553 C57.88,3.737 57.73,3.886 57.547,3.886 C57.362,3.886 57.213,3.737 57.213,3.553 C57.213,3.369 57.362,3.22 57.547,3.22 C57.73,3.22 57.88,3.369 57.88,3.553" id="Fill-225" fill="#E9CA3C"></path>
                    <path d="M59.922,3.553 C59.922,3.737 59.772,3.886 59.588,3.886 C59.404,3.886 59.255,3.737 59.255,3.553 C59.255,3.369 59.404,3.22 59.588,3.22 C59.772,3.22 59.922,3.369 59.922,3.553" id="Fill-226" fill="#E9CA3C"></path>
                    <polygon id="Fill-227" fill="#16192D" points="50.13 4.557 53.967 4.557 53.967 0.72 50.13 0.72"></polygon>
                    <polygon id="Fill-228" fill="#E9413C" points="45.172 20.428 64.505 20.428 64.505 19.678 45.172 19.678"></polygon>
                    <polygon id="Fill-229" fill="#289FCA" points="45.172 22.595 64.505 22.595 64.505 21.845 45.172 21.845"></polygon>
                    <path d="M46.007,24.325 L42.666,24.325 C41.562,24.325 40.668,23.43 40.668,22.327 L40.668,0.736 L48.005,0.736 L48.005,22.327 C48.005,23.43 47.11,24.325 46.007,24.325" id="Fill-230" fill="#13153C"></path>
                    <path d="M46.149,7.261 L42.524,7.261 C42.317,7.261 42.149,7.093 42.149,6.886 C42.149,6.679 42.317,6.511 42.524,6.511 L46.149,6.511 C46.356,6.511 46.524,6.679 46.524,6.886 C46.524,7.093 46.356,7.261 46.149,7.261" id="Fill-231" fill="#E9413C"></path>
                    <path d="M46.149,8.846 L42.524,8.846 C42.317,8.846 42.149,8.678 42.149,8.471 C42.149,8.264 42.317,8.096 42.524,8.096 L46.149,8.096 C46.356,8.096 46.524,8.264 46.524,8.471 C46.524,8.678 46.356,8.846 46.149,8.846" id="Fill-232" fill="#E9CA3C"></path>
                    <path d="M46.149,10.43 L42.524,10.43 C42.317,10.43 42.149,10.262 42.149,10.055 C42.149,9.848 42.317,9.68 42.524,9.68 L46.149,9.68 C46.356,9.68 46.524,9.848 46.524,10.055 C46.524,10.262 46.356,10.43 46.149,10.43" id="Fill-233" fill="#81CA3C"></path>
                    <path d="M45.505,15.054 C45.505,15.238 45.355,15.387 45.172,15.387 C44.987,15.387 44.838,15.238 44.838,15.054 C44.838,14.87 44.987,14.721 45.172,14.721 C45.355,14.721 45.505,14.87 45.505,15.054" id="Fill-234" fill="#E9CA3C"></path>
                    <path d="M45.505,16.553 C45.505,16.737 45.355,16.886 45.172,16.886 C44.987,16.886 44.838,16.737 44.838,16.553 C44.838,16.369 44.987,16.22 45.172,16.22 C45.355,16.22 45.505,16.369 45.505,16.553" id="Fill-235" fill="#81CA3C"></path>
                    <path d="M45.505,18.052 C45.505,18.236 45.355,18.386 45.172,18.386 C44.987,18.386 44.838,18.236 44.838,18.052 C44.838,17.868 44.987,17.719 45.172,17.719 C45.355,17.719 45.505,17.868 45.505,18.052" id="Fill-236" fill="#E9613C"></path>
                </g>
                <g id="Man-Kneeling" transform="translate(549.000000, 360.000000)">
                    <path d="M8.265,65.316 L8.265,75.086 C8.265,78.956 5.595,82.196 2.005,83.086 L2.005,65.336 L2.274,65.316 L8.265,65.316" id="Fill-237" fill="#2448AD"></path>
                    <path d="M44.713,76.253 L8.268,76.253 L8.268,65.319 L44.713,65.319 C47.72,65.319 50.18,67.779 50.18,70.786 C50.18,73.792 47.72,76.253 44.713,76.253" id="Fill-238" fill="#1F4A95"></path>
                    <path d="M57.153,76.253 L20.708,76.253 L20.708,65.319 L57.153,65.319 C60.16,65.319 62.62,67.779 62.62,70.786 C62.62,73.792 60.16,76.253 57.153,76.253" id="Fill-239" fill="#326EA8"></path>
                    <path d="M44.713,76.253 L8.268,76.253 L8.268,65.319 L44.713,65.319 C47.72,65.319 50.18,67.779 50.18,70.786 C50.18,73.792 47.72,76.253 44.713,76.253" id="Fill-240" fill="#16192D"></path>
                    <path d="M57.153,76.253 L20.708,76.253 L20.708,65.319 L57.153,65.319 C60.16,65.319 62.62,67.779 62.62,70.786 C62.62,73.792 60.16,76.253 57.153,76.253" id="Fill-241" fill="#16192D"></path>
                    <path d="M46.608,71.903 L20.15,62.359 L23.86,52.074 L50.318,61.618 C52.854,62.533 54.182,65.357 53.267,67.894 L52.884,68.955 C51.969,71.491 49.144,72.818 46.608,71.903" id="Fill-242" fill="#16192D"></path>
                    <path d="M55.83,75.229 L29.373,65.686 L33.083,55.401 L59.54,64.945 C62.077,65.86 63.403,68.684 62.488,71.221 L62.106,72.281 C61.191,74.818 58.367,76.145 55.83,75.229" id="Fill-243" fill="#16192D"></path>
                    <path d="M20.15,62.359 C20.15,62.359 14.411,60.576 16.838,54.053 C19.505,46.886 21.172,42.72 21.172,42.72 L40.435,50.82 L37.541,57.009 L20.15,62.359" id="Fill-244" fill="#16192D"></path>
                    <path d="M12.468,83.326 L12.468,67.568 C12.468,66.331 13.479,65.319 14.717,65.319 L20.708,65.319 L20.708,75.086 C20.708,79.637 17.018,83.326 12.468,83.326" id="Fill-245" fill="#2448AD"></path>
                    <path d="M18.555,49.209 L30.054,21.576 C31.101,19.315 33.795,18.349 36.04,19.429 L44.992,23.739 C48.372,25.365 49.855,29.377 48.347,32.811 L38.838,57.053 L18.555,49.209" id="Fill-246" fill="#00CED1"></path>
                    <polyline id="Fill-247" fill="#FFB370" points="45.03 50.107 53.983 74.945 58.657 73.559 49.15 49.156 45.03 50.107"></polyline>
                    <path d="M51.16,48.618 L42.586,51.926 L35.8,34.332 C34.89,31.975 36.075,29.301 38.434,28.391 C40.791,27.482 43.465,28.667 44.374,31.025 L51.16,48.618" id="Fill-248" fill="#81E3E7"></path>
                    <path d="M61.708,76.372 C61.708,74.14 59.898,72.331 57.667,72.331 C55.435,72.331 53.626,74.14 53.626,76.372" id="Fill-249" fill="#FFB370"></path>
                    <polyline id="Fill-250" fill="#00CED1" points="36.473 20.95 38.533 18.256 45.822 22.376 44.237 24.912 36.473 20.95"></polyline>
                    <polyline id="Fill-251" fill="#FFB370" points="38.696 18.546 40.539 15.725 45.865 19.64 44.65 21.584 38.696 18.546"></polyline>
                    <path d="M56.128,11.416 C56.128,16.092 52.337,19.883 47.661,19.883 C42.985,19.883 39.195,16.092 39.195,11.416 C39.195,6.741 42.985,2.95 47.661,2.95 C52.337,2.95 56.128,6.741 56.128,11.416" id="Fill-252" fill="#FFB370"></path>
                    <path d="M59.44,5.631 C59.44,5.631 57.895,10.748 52.252,8.674 C46.608,6.6 50.234,13.103 50.234,13.103 L48.335,12.465 C48.335,12.465 47.501,8.661 45.701,10.346 C43.901,12.03 47.435,13.571 47.435,13.571 C47.435,13.571 45.577,16.997 41.885,15.932 C38.192,14.866 37.454,14.441 37.454,14.441 C37.454,14.441 36.955,3.881 42.293,1.625 C47.632,-0.63 51.638,1.598 54.801,3.19 C57.965,4.783 59.44,5.631 59.44,5.631" id="Fill-253" fill="#16192D"></path>
                    <path d="M2.005,65.336 L2.005,83.086 C1.375,83.247 0.705,83.326 0.024,83.326 L0.024,67.566 C0.024,66.416 0.895,65.466 2.005,65.336" id="Fill-254" fill="#0091D7"></path>
                    <path d="M14.338,65.336 L14.338,83.086 C13.708,83.247 13.038,83.326 12.358,83.326 L12.358,67.566 C12.358,66.416 13.228,65.466 14.338,65.336" id="Fill-255" fill="#0091D7"></path>
                </g>
                <g id="Painter" transform="translate(733.000000, 170.000000)">
                    <path d="M13.988,39.721 C13.459,39.918 12.865,39.647 12.667,39.119 L9.898,31.714 C9.7,31.185 9.972,30.591 10.5,30.393 C11.028,30.196 11.623,30.467 11.82,30.996 L14.59,38.4 C14.787,38.929 14.517,39.523 13.988,39.721" id="Fill-256" fill="#FF8B1F"></path>
                    <path d="M12.828,33.256 L10.764,34.028 C8.375,34.921 5.689,33.698 4.797,31.31 C3.903,28.921 5.127,26.235 7.516,25.342 L9.58,24.57 C11.969,23.677 14.654,24.9 15.547,27.289 C16.44,29.678 15.217,32.363 12.828,33.256" id="Fill-257" fill="#FF8B1F"></path>
                    <polyline id="Fill-258" fill="#FFE6EE" points="15.52 27.218 4.698 31.265 0.651 20.443 11.474 16.395 15.52 27.218"></polyline>
                    <polyline id="Fill-259" fill="#514645" points="14.765 25.195 3.942 29.242 4.698 31.265 15.52 27.218 14.765 25.195"></polyline>
                    <polygon id="Fill-260" fill="#FFB370" points="50.713 22.365 57.912 22.365 57.912 18.046 50.713 18.046"></polygon>
                    <path d="M62.51,13.56 C60.74,18.655 55.17,21.355 50.075,19.586 C44.979,17.817 42.28,12.247 44.049,7.152 L60.663,12.919 C61.476,13.201 62.363,12.91 62.841,12.248 C62.773,12.68 62.656,13.136 62.51,13.56" id="Fill-261" fill="#FFB370"></path>
                    <path d="M63.15,11.714 C63.08,11.917 62.978,12.089 62.841,12.248 C62.363,12.91 61.476,13.201 60.663,12.919 L40.356,5.87 C39.342,5.518 38.799,4.398 39.151,3.383 C39.504,2.368 40.623,1.826 41.639,2.178 L46.088,3.722 C48.655,0.973 52.699,-0.188 56.483,1.126 C60.471,2.51 62.989,6.218 63.039,10.186 C63.274,10.641 63.33,11.197 63.15,11.714" id="Fill-262" fill="#FF8B1F"></path>
                    <path d="M62.51,13.56 L45.894,7.792 C44.88,7.44 44.337,6.321 44.689,5.306 C45.042,4.29 46.161,3.748 47.177,4.101 L63.791,9.868 C64.807,10.221 65.349,11.34 64.996,12.355 C64.643,13.37 63.524,13.913 62.51,13.56" id="Fill-263" fill="#FF8B1F"></path>
                    <path d="M51.202,9.635 C51.202,9.635 53.279,10.356 52.639,12.202 C51.997,14.048 51.997,14.048 51.997,14.048 L53.844,14.689 C53.844,14.689 54.484,12.843 56.33,13.484 C58.177,14.124 57.535,15.971 57.535,15.971 L56.259,19.648 C56.259,19.648 60.587,19.098 62.51,13.56 L51.202,9.635" id="Fill-264" fill="#3B381F"></path>
                    <path d="M43.52,9.896 C43.52,9.896 38.998,12.91 44.254,14.081 L43.52,9.896" id="Fill-265" fill="#FF8F70"></path>
                    <path d="M54.312,62.682 C49.165,62.682 44.954,58.47 44.954,53.323 L44.954,31.725 C44.954,26.577 49.165,22.365 54.312,22.365 C59.46,22.365 63.672,26.577 63.672,31.725 L63.672,53.323 C63.672,58.47 59.46,62.682 54.312,62.682" id="Fill-266" fill="#FF8B1F"></path>
                    <polygon id="Fill-267" fill="#FF8B1F" points="49.273 25.245 59.352 25.245 59.352 20.926 49.273 20.926"></polygon>
                    <polygon id="Fill-268" fill="#2C2C47" points="44.954 85.72 63.672 85.72 63.672 48.22 44.954 48.22"></polygon>
                    <polyline id="Fill-269" fill="#FFB370" points="40.706 31.138 14.733 35.133 16.084 39.481 43.497 35.516 40.706 31.138"></polyline>
                    <path d="M50.684,37.746 L36.257,39.2 L35.367,31.959 L49.013,29.27 C50.937,28.891 52.823,30.155 53.203,32.08 L53.494,33.556 C53.873,35.481 52.608,37.367 50.684,37.746" id="Fill-270" fill="#FF8B1F"></path>
                    <path d="M12.052,38.709 C12.727,40.578 14.792,41.545 16.661,40.869 C18.53,40.192 19.498,38.129 18.821,36.259 C18.144,34.39 16.081,33.423 14.212,34.099 C12.342,34.775 11.375,36.839 12.052,38.709" id="Fill-271" fill="#FFB370"></path>
                    <path d="M16.052,37.859 L10.321,38.44 C9.928,38.48 9.572,38.19 9.533,37.796 C9.493,37.403 9.782,37.047 10.177,37.008 L15.906,36.427 C16.301,36.387 16.655,36.676 16.695,37.07 C16.735,37.464 16.445,37.819 16.052,37.859" id="Fill-272" fill="#FFB370"></path>
                    <path d="M16.508,36.39 L10.777,36.971 C10.384,37.011 10.028,36.721 9.989,36.327 C9.949,35.933 10.238,35.578 10.633,35.538 L16.362,34.957 C16.757,34.917 17.111,35.206 17.151,35.601 C17.191,35.995 16.901,36.35 16.508,36.39" id="Fill-273" fill="#FFB370"></path>
                    <path d="M16.984,39.198 L11.255,39.779 C10.86,39.819 10.506,39.529 10.466,39.135 C10.426,38.741 10.716,38.386 11.109,38.346 L16.84,37.765 C17.233,37.725 17.589,38.015 17.629,38.409 C17.668,38.803 17.379,39.158 16.984,39.198" id="Fill-274" fill="#FFB370"></path>
                    <path d="M16.393,40.796 L12.294,41.071 C11.899,41.111 11.545,40.821 11.505,40.427 C11.465,40.033 11.754,39.678 12.148,39.638 L16.62,39.402 C17.015,39.362 17.369,39.652 17.409,40.046 L17.964,39.706 C18.003,40.1 16.786,40.756 16.393,40.796" id="Fill-275" fill="#FFB370"></path>
                    <polyline id="Fill-276" fill="#00BF70" points="3.376 27.727 12.635 19.502 11.474 16.395 0.651 20.443 3.376 27.727"></polyline>
                    <path d="M2.589,35.928 C2.589,36.595 2.048,37.136 1.38,37.136 C0.713,37.136 0.172,36.595 0.172,35.928 C0.172,35.261 1.38,32.97 1.38,32.97 C1.38,32.97 2.589,35.261 2.589,35.928" id="Fill-277" fill="#00BF70"></path>
                </g>
                <g id="Lift" transform="translate(751.000000, 224.000000)">
                    <polyline id="Fill-278" fill="#FFFFFF" points="52.805 349.533382 40.127 336.819467 41.402 335.539853 54.08 348.252765 52.805 349.533382"></polyline>
                    <polyline id="Fill-279" fill="#FFFFFF" points="41.402 349.533382 40.127 348.252765 52.805 335.539853 54.08 336.819467 41.402 349.533382"></polyline>
                    <polyline id="Fill-280" fill="#FFFFFF" points="52.805 338.674708 40.127 325.960793 41.402 324.681178 54.08 337.395093 52.805 338.674708"></polyline>
                    <polyline id="Fill-281" fill="#FFFFFF" points="41.402 338.674708 40.127 337.395093 52.805 324.681178 54.08 325.960793 41.402 338.674708"></polyline>
                    <polyline id="Fill-282" fill="#FFFFFF" points="52.805 327.816034 40.127 315.102119 41.402 313.822504 54.08 326.536419 52.805 327.816034"></polyline>
                    <polyline id="Fill-283" fill="#FFFFFF" points="41.402 327.816034 40.127 326.536419 52.805 313.822504 54.08 315.102119 41.402 327.816034"></polyline>
                    <polyline id="Fill-284" fill="#FFFFFF" points="52.805 316.95736 40.127 304.244448 41.402 302.96383 54.08 315.677745 52.805 316.95736"></polyline>
                    <polyline id="Fill-285" fill="#FFFFFF" points="41.402 316.95736 40.127 315.677745 52.805 302.96383 54.08 304.244448 41.402 316.95736"></polyline>
                    <polyline id="Fill-286" fill="#FFFFFF" points="52.805 306.099688 40.127 293.385773 41.402 292.106159 54.08 304.819071 52.805 306.099688"></polyline>
                    <polyline id="Fill-287" fill="#FFFFFF" points="41.402 306.099688 40.127 304.819071 52.805 292.106159 54.08 293.385773 41.402 306.099688"></polyline>
                    <polyline id="Fill-288" fill="#FFFFFF" points="52.805 295.241014 40.127 282.527099 41.402 281.247484 54.08 293.961399 52.805 295.241014"></polyline>
                    <polyline id="Fill-289" fill="#FFFFFF" points="41.402 295.241014 40.127 293.961399 52.805 281.247484 54.08 282.527099 41.402 295.241014"></polyline>
                    <polyline id="Fill-290" fill="#FFFFFF" points="52.805 284.38234 40.127 271.668425 41.402 270.38881 54.08 283.102725 52.805 284.38234"></polyline>
                    <polyline id="Fill-291" fill="#FFFFFF" points="41.402 284.38234 40.127 283.102725 52.805 270.38881 54.08 271.668425 41.402 284.38234"></polyline>
                    <polyline id="Fill-292" fill="#FFFFFF" points="52.805 273.523666 40.127 260.810754 41.402 259.530136 54.08 272.244051 52.805 273.523666"></polyline>
                    <polyline id="Fill-293" fill="#FFFFFF" points="41.402 273.523666 40.127 272.244051 52.805 259.530136 54.08 260.810754 41.402 273.523666"></polyline>
                    <polyline id="Fill-294" fill="#FFFFFF" points="52.805 262.665994 40.127 249.952079 41.402 248.671462 54.08 261.385377 52.805 262.665994"></polyline>
                    <polyline id="Fill-295" fill="#FFFFFF" points="41.402 262.665994 40.127 261.385377 52.805 248.671462 54.08 249.952079 41.402 262.665994"></polyline>
                    <polyline id="Fill-296" fill="#FFFFFF" points="52.805 251.80732 40.127 239.093405 41.402 237.81379 54.08 250.527705 52.805 251.80732"></polyline>
                    <polyline id="Fill-297" fill="#FFFFFF" points="41.402 251.80732 40.127 250.527705 52.805 237.81379 54.08 239.093405 41.402 251.80732"></polyline>
                    <polyline id="Fill-298" fill="#FFFFFF" points="52.805 240.948646 40.127 228.234731 41.402 226.955116 54.08 239.669031 52.805 240.948646"></polyline>
                    <polyline id="Fill-299" fill="#FFFFFF" points="41.402 240.948646 40.127 239.669031 52.805 226.955116 54.08 228.234731 41.402 240.948646"></polyline>
                    <polyline id="Fill-300" fill="#FFFFFF" points="52.805 230.089972 40.127 217.377059 41.402 216.096442 54.08 228.810357 52.805 230.089972"></polyline>
                    <polyline id="Fill-301" fill="#FFFFFF" points="41.402 230.089972 40.127 228.810357 52.805 216.096442 54.08 217.377059 41.402 230.089972"></polyline>
                    <polyline id="Fill-302" fill="#FFFFFF" points="52.805 219.2323 40.127 206.518385 41.402 205.237768 54.08 217.951683 52.805 219.2323"></polyline>
                    <polyline id="Fill-303" fill="#FFFFFF" points="41.402 219.2323 40.127 217.951683 52.805 205.237768 54.08 206.518385 41.402 219.2323"></polyline>
                    <polyline id="Fill-304" fill="#FFFFFF" points="52.805 208.373626 40.127 195.659711 41.402 194.380096 54.08 207.093008 52.805 208.373626"></polyline>
                    <polyline id="Fill-305" fill="#FFFFFF" points="41.402 208.373626 40.127 207.093008 52.805 194.380096 54.08 195.659711 41.402 208.373626"></polyline>
                    <polyline id="Fill-306" fill="#FFFFFF" points="52.805 197.514952 40.127 184.801037 41.402 183.521422 54.08 196.235337 52.805 197.514952"></polyline>
                    <polyline id="Fill-307" fill="#FFFFFF" points="41.402 197.514952 40.127 196.235337 52.805 183.521422 54.08 184.801037 41.402 197.514952"></polyline>
                    <polyline id="Fill-308" fill="#FFFFFF" points="52.805 186.656278 40.127 173.943365 41.402 172.662748 54.08 185.376663 52.805 186.656278"></polyline>
                    <polyline id="Fill-309" fill="#FFFFFF" points="41.402 186.656278 40.127 185.376663 52.805 172.662748 54.08 173.943365 41.402 186.656278"></polyline>
                    <polyline id="Fill-310" fill="#FFFFFF" points="52.805 175.798606 40.127 163.083688 41.402 161.804074 54.08 174.517989 52.805 175.798606"></polyline>
                    <polyline id="Fill-311" fill="#FFFFFF" points="41.402 175.798606 40.127 174.517989 52.805 161.804074 54.08 163.083688 41.402 175.798606"></polyline>
                    <polyline id="Fill-312" fill="#FFFFFF" points="52.805 164.939932 40.127 152.226017 41.402 150.945399 54.08 163.659314 52.805 164.939932"></polyline>
                    <polyline id="Fill-313" fill="#FFFFFF" points="41.402 164.939932 40.127 163.659314 52.805 150.945399 54.08 152.226017 41.402 164.939932"></polyline>
                    <polyline id="Fill-314" fill="#FFFFFF" points="52.805 154.081258 40.127 141.367343 41.402 140.087728 54.08 152.801643 52.805 154.081258"></polyline>
                    <polyline id="Fill-315" fill="#FFFFFF" points="41.402 154.081258 40.127 152.801643 52.805 140.087728 54.08 141.367343 41.402 154.081258"></polyline>
                    <polyline id="Fill-316" fill="#FFFFFF" points="52.805 143.222584 40.127 130.509671 41.402 129.229054 54.08 141.942969 52.805 143.222584"></polyline>
                    <polyline id="Fill-317" fill="#FFFFFF" points="41.402 143.222584 40.127 141.942969 52.805 129.229054 54.08 130.509671 41.402 143.222584"></polyline>
                    <polyline id="Fill-318" fill="#FFFFFF" points="52.805 132.364912 40.127 119.649994 41.402 118.37038 54.08 131.084295 52.805 132.364912"></polyline>
                    <polyline id="Fill-319" fill="#FFFFFF" points="41.402 132.364912 40.127 131.084295 52.805 118.37038 54.08 119.649994 41.402 132.364912"></polyline>
                    <polyline id="Fill-320" fill="#FFFFFF" points="52.805 121.506238 40.127 108.792323 41.402 107.511705 54.08 120.22562 52.805 121.506238"></polyline>
                    <polyline id="Fill-321" fill="#FFFFFF" points="41.402 121.506238 40.127 120.22562 52.805 107.511705 54.08 108.792323 41.402 121.506238"></polyline>
                    <polyline id="Fill-322" fill="#FFFFFF" points="52.805 110.647564 40.127 97.9336487 41.402 96.654034 54.08 109.367949 52.805 110.647564"></polyline>
                    <polyline id="Fill-323" fill="#FFFFFF" points="41.402 110.647564 40.127 109.367949 52.805 96.654034 54.08 97.9336487 41.402 110.647564"></polyline>
                    <polyline id="Fill-324" fill="#FFFFFF" points="52.805 99.7888895 40.127 87.0759773 41.402 85.7953598 54.08 98.5092748 52.805 99.7888895"></polyline>
                    <polyline id="Fill-325" fill="#FFFFFF" points="41.402 99.7888895 40.127 98.5092748 52.805 85.7953598 54.08 87.0759773 41.402 99.7888895"></polyline>
                    <polyline id="Fill-326" fill="#FFFFFF" points="52.805 88.9312181 40.127 76.2163003 41.402 74.9366856 54.08 87.6506006 52.805 88.9312181"></polyline>
                    <polyline id="Fill-327" fill="#FFFFFF" points="41.402 88.9312181 40.127 87.6506006 52.805 74.9366856 54.08 76.2163003 41.402 88.9312181"></polyline>
                    <path d="M76.203,4.34126346 L4.921,4.34126346 C3.928,4.34126346 3.116,3.52696317 3.116,2.53115014 C3.116,1.53633994 3.928,0.72203966 4.921,0.72203966 L76.203,0.72203966 C77.196,0.72203966 78.008,1.53633994 78.008,2.53115014 C78.008,3.52696317 77.196,4.34126346 76.203,4.34126346" id="Fill-328" fill="#FFF7E5"></path>
                    <path d="M8.981,34.2016147 C8.236,34.2016147 7.628,33.5908895 7.628,32.8447819 L7.628,3.88898584 C7.628,3.14187535 8.236,2.53115014 8.981,2.53115014 C9.726,2.53115014 10.335,3.14187535 10.335,3.88898584 L10.335,32.8447819 C10.335,33.5908895 9.726,34.2016147 8.981,34.2016147" id="Fill-329" fill="#FFF7E5"></path>
                    <path d="M70.339,34.2016147 C69.594,34.2016147 68.985,33.5908895 68.985,32.8447819 L68.985,3.88898584 C68.985,3.14187535 69.594,2.53115014 70.339,2.53115014 C71.083,2.53115014 71.691,3.14187535 71.691,3.88898584 L71.691,32.8447819 C71.691,33.5908895 71.083,34.2016147 70.339,34.2016147" id="Fill-330" fill="#FFF7E5"></path>
                    <path d="M26.125,34.2016147 C25.381,34.2016147 24.771,33.5908895 24.771,32.8447819 L24.771,3.88898584 C24.771,3.14187535 25.381,2.53115014 26.125,2.53115014 C26.869,2.53115014 27.478,3.14187535 27.478,3.88898584 L27.478,32.8447819 C27.478,33.5908895 26.869,34.2016147 26.125,34.2016147" id="Fill-331" fill="#FFF7E5"></path>
                    <path d="M55.901,34.2016147 C55.157,34.2016147 54.548,33.5908895 54.548,32.8447819 L54.548,3.88898584 C54.548,3.14187535 55.157,2.53115014 55.901,2.53115014 C56.645,2.53115014 57.255,3.14187535 57.255,3.88898584 L57.255,32.8447819 C57.255,33.5908895 56.645,34.2016147 55.901,34.2016147" id="Fill-332" fill="#FFF7E5"></path>
                    <polygon id="Fill-333" fill="#FFF7E5" points="11.237 72.2059717 75.301 72.2059717 75.301 65.8720793 11.237 65.8720793"></polygon>
                    <polygon id="Fill-334" fill="#E0D4BB" points="57.255 72.2059717 75.301 72.2059717 75.301 61.3483003 57.255 61.3483003"></polygon>
                    <polygon id="Fill-335" fill="#8E005C" points="0.409 69.4913031 57.255 69.4913031 57.255 30.5823909 0.409 30.5823909"></polygon>
                    <polygon id="Fill-336" fill="#D13C7B" points="57.255 69.4913031 80.715 69.4913031 80.715 30.5823909 57.255 30.5823909"></polygon>
                    <polygon id="Fill-337" fill="#FFF7E5" points="51.841 352.716374 59.962 352.716374 59.962 72.2059717 51.841 72.2059717"></polygon>
                    <polygon id="Fill-338" fill="#FFF7E5" points="39.209 352.716374 42.817 352.716374 42.817 72.2059717 39.209 72.2059717"></polygon>
                    <polygon id="Fill-339" fill="#E0D4BB" points="51.841 85.7793144 59.962 85.7793144 59.962 72.2059717 51.841 72.2059717"></polygon>
                    <polygon id="Fill-340" fill="#E0D4BB" points="32.005 353.719207 73.005 353.719207 73.005 343.690878 32.005 343.690878"></polygon>
                    <polygon id="Fill-341" fill="#FFF7E5" points="60.005 353.719207 101.005 353.719207 101.005 334.665382 60.005 334.665382"></polygon>
                </g>
                <g id="Clouds" transform="translate(100.000000, 129.000000)" fill="#DCE8F6">
                    <path d="M46.5642904,69.689 C44.8299217,69.689 43.2599672,70.371 42.0990429,71.474 C40.8138056,69.222 38.3816793,67.701 35.6016768,67.701 L35.4412727,67.706 C36.3736212,62.035 33.2387247,56.293 27.652654,54.126 C21.2384975,51.646 14.0183106,54.817 11.5270354,61.214 C11.0137424,62.532 10.7450657,63.884 10.6949394,65.221 L10.4352854,65.216 C4.8792904,65.216 0.353891414,69.644 0.225568182,75.157 L52.9674192,75.157 C52.4892146,72.06 49.8034495,69.689 46.5642904,69.689" id="Fill-11"></path>
                    <path d="M955.627121,226.721 C957.842702,226.721 959.857778,227.593 961.341515,229.005 C962.985657,226.123 966.10351,224.176 969.662475,224.176 L969.86298,224.183 C968.669975,216.923 972.680076,209.574 979.838106,206.8 C988.038763,203.625 997.282045,207.685 1000.47008,215.873 C1001.13174,217.559 1001.4726,219.289 1001.54278,221.001 C1001.65306,220.995 1001.75331,220.995 1001.87361,220.995 C1008.98152,220.995 1014.77611,226.664 1014.93652,233.72 L947.426465,233.72 C948.04803,229.756 951.476667,226.721 955.627121,226.721" id="Fill-12"></path>
                    <path d="M316.51226,156.491 C316.51226,156.909 316.475167,157.327 316.40098,157.72 L230.295088,157.72 C230.295088,154.329 233.054038,151.577 236.452598,151.577 C237.463144,151.577 238.411533,151.823 239.248641,152.252 C240.259187,148.456 243.65875,145.63 247.735018,145.458 C249.237803,133.664 259.326215,124.548 271.55602,124.548 C282.296073,124.548 291.398,131.588 294.465727,141.294 C295.770013,140.79 297.175553,140.519 298.652273,140.519 C304.072927,140.519 308.617374,144.181 309.947725,149.169 C313.64203,149.574 316.51226,152.707 316.51226,156.491" id="Fill-13"></path>
                    <path d="M861.379722,7.72 C859.595227,7.72 857.90096,8.09 856.357071,8.769 C853.981086,4 849.048662,0.72 843.334268,0.72 C835.815328,0.72 829.629747,6.41 828.877854,13.72 L828.797652,13.72 C826.471793,13.72 824.276263,14.21 822.281237,15.11 C819.684697,12.99 816.376364,11.72 812.757247,11.72 C805.844836,11.72 800.020164,16.38 798.265745,22.72 L873.660657,22.72 C873.821061,21.91 873.911288,21.08 873.911288,20.22 C873.911288,13.32 868.307172,7.72 861.379722,7.72" id="Fill-14"></path>
                    <path d="M1185.77684,99.16 C1185.30566,99.16 1184.85452,99.219 1184.42343,99.336 C1183.27053,96.915 1180.79429,95.244 1177.91705,95.244 C1177.74662,87.648 1171.51091,81.54 1163.85162,81.54 C1158.01692,81.54 1153.01432,85.09 1150.87894,90.135 L1150.87894,90.139 C1150.52806,90.064 1150.16715,90.024 1149.78619,90.024 C1146.89891,90.024 1144.55301,92.361 1144.55301,95.244 C1144.55301,95.914 1144.68333,96.553 1144.91391,97.142 L1144.91391,97.143 C1143.49033,98.448 1142.58806,100.334 1142.58806,102.423 C1142.58806,103.101 1142.68831,103.76 1142.86876,104.38 L1191,104.38 C1191,101.496 1188.66412,99.16 1185.77684,99.16" id="Fill-15"></path>
                </g>
                <g id="Stars" transform="translate(84.000000, 0.000000)">
                    <path d="M697.173502,99.504298 C697.173502,100.889255 696.051011,102.011461 694.665702,102.011461 C693.281396,102.011461 692.157902,100.889255 692.157902,99.504298 C692.157902,98.119341 693.281396,96.9971347 694.665702,96.9971347 C696.051011,96.9971347 697.173502,98.119341 697.173502,99.504298" id="Fill-110" fill="#DCCC3A"></path>
                    <path d="M1122.49142,190.765043 C1122.49142,192.15 1121.37796,193.272206 1119.98362,193.272206 C1118.59931,193.272206 1117.47582,192.15 1117.47582,190.765043 C1117.47582,189.380086 1118.59931,188.25788 1119.98362,188.25788 C1121.37796,188.25788 1122.49142,189.380086 1122.49142,190.765043" id="Fill-111" fill="#DCCC3A"></path>
                    <path d="M1284.99688,166.696275 C1284.99688,168.081232 1283.88342,169.203438 1282.48908,169.203438 C1281.10477,169.203438 1279.98128,168.081232 1279.98128,166.696275 C1279.98128,165.311318 1281.10477,164.189112 1282.48908,164.189112 C1283.88342,164.189112 1284.99688,165.311318 1284.99688,166.696275" id="Fill-112" fill="#DCCC3A"></path>
                    <path d="M847.636505,217.842407 C847.636505,219.227364 846.523042,220.34957 845.128705,220.34957 C843.744399,220.34957 842.620905,219.227364 842.620905,217.842407 C842.620905,216.45745 843.744399,215.335244 845.128705,215.335244 C846.523042,215.335244 847.636505,216.45745 847.636505,217.842407" id="Fill-113" fill="#DCCC3A"></path>
                    <path d="M192.60408,327.154728 C192.60408,328.539685 191.481588,329.661891 190.096279,329.661891 C188.711973,329.661891 187.588479,328.539685 187.588479,327.154728 C187.588479,325.769771 188.711973,324.647564 190.096279,324.647564 C191.481588,324.647564 192.60408,325.769771 192.60408,327.154728" id="Fill-114" fill="#DCCC3A"></path>
                    <path d="M438.36851,160.679083 C438.36851,161.509456 437.695417,162.183381 436.86383,162.183381 C436.033246,162.183381 435.35915,161.509456 435.35915,160.679083 C435.35915,159.847708 436.033246,159.174785 436.86383,159.174785 C437.695417,159.174785 438.36851,159.847708 438.36851,160.679083" id="Fill-115" fill="#DCCC3A"></path>
                    <path d="M327.022176,129.590258 C327.022176,130.42063 326.349083,131.094556 325.517496,131.094556 C324.686913,131.094556 324.012816,130.42063 324.012816,129.590258 C324.012816,128.758883 324.686913,128.08596 325.517496,128.08596 C326.349083,128.08596 327.022176,128.758883 327.022176,129.590258" id="Fill-116" fill="#DCCC3A"></path>
                    <path d="M860.677067,281.022923 C860.677067,281.853295 860.004977,282.527221 859.172387,282.527221 C858.349828,282.527221 857.667707,281.853295 857.667707,281.022923 C857.667707,280.191547 858.349828,279.518625 859.172387,279.518625 C860.004977,279.518625 860.677067,280.191547 860.677067,281.022923" id="Fill-117" fill="#DCCC3A"></path>
                    <path d="M1106.4415,325.148997 C1106.4415,325.97937 1105.76941,326.653295 1104.93682,326.653295 C1104.11426,326.653295 1103.43214,325.97937 1103.43214,325.148997 C1103.43214,324.317622 1104.11426,323.644699 1104.93682,323.644699 C1105.76941,323.644699 1106.4415,324.317622 1106.4415,325.148997" id="Fill-118" fill="#DCCC3A"></path>
                    <path d="M400.249945,278.014327 C400.249945,279.399284 399.127454,280.52149 397.742145,280.52149 C396.357839,280.52149 395.234345,279.399284 395.234345,278.014327 C395.234345,276.62937 396.357839,275.507163 397.742145,275.507163 C399.127454,275.507163 400.249945,276.62937 400.249945,278.014327" id="Fill-119" fill="#DCCC3A"></path>
                    <path d="M332.037777,175.22063 C332.037777,175.774212 331.589382,176.223496 331.034657,176.223496 C330.480934,176.223496 330.031537,175.774212 330.031537,175.22063 C330.031537,174.666046 330.480934,174.217765 331.034657,174.217765 C331.589382,174.217765 332.037777,174.666046 332.037777,175.22063" id="Fill-120" fill="#DCCC3A"></path>
                    <path d="M75.239025,305.593123 C75.239025,306.146705 74.7906303,306.595989 74.2359048,306.595989 C73.6821825,306.595989 73.2327847,306.146705 73.2327847,305.593123 C73.2327847,305.038539 73.6821825,304.590258 74.2359048,304.590258 C74.7906303,304.590258 75.239025,305.038539 75.239025,305.593123" id="Fill-121" fill="#DCCC3A"></path>
                    <path d="M3.01437598,329.661891 C3.01437598,330.215473 2.56598128,330.664756 2.01125585,330.664756 C1.45753354,330.664756 1.00813573,330.215473 1.00813573,329.661891 C1.00813573,329.107307 1.45753354,328.659026 2.01125585,328.659026 C2.56598128,328.659026 3.01437598,329.107307 3.01437598,329.661891" id="Fill-122" fill="#DCCC3A"></path>
                    <path d="M2.01125585,257.455587 C2.01125585,258.009169 1.56286115,258.458453 1.00813573,258.458453 C0.454413417,258.458453 0.00501560062,258.009169 0.00501560062,257.455587 C0.00501560062,256.901003 0.454413417,256.452722 1.00813573,256.452722 C1.56286115,256.452722 2.01125585,256.901003 2.01125585,257.455587" id="Fill-123" fill="#DCCC3A"></path>
                    <path d="M444.387231,85.965616 C444.387231,86.5191977 443.938836,86.9684814 443.384111,86.9684814 C442.830388,86.9684814 442.380991,86.5191977 442.380991,85.965616 C442.380991,85.4110315 442.830388,84.9627507 443.384111,84.9627507 C443.938836,84.9627507 444.387231,85.4110315 444.387231,85.965616" id="Fill-124" fill="#DCCC3A"></path>
                    <path d="M239.750725,348.716332 C239.750725,349.269914 239.302331,349.719198 238.747605,349.719198 C238.193883,349.719198 237.744485,349.269914 237.744485,348.716332 C237.744485,348.161748 238.193883,347.713467 238.747605,347.713467 C239.302331,347.713467 239.750725,348.161748 239.750725,348.716332" id="Fill-125" fill="#DCCC3A"></path>
                    <path d="M737.298307,109.031519 C737.298307,109.5851 736.849913,110.034384 736.295187,110.034384 C735.741465,110.034384 735.292067,109.5851 735.292067,109.031519 C735.292067,108.476934 735.741465,108.028653 736.295187,108.028653 C736.849913,108.028653 737.298307,108.476934 737.298307,109.031519" id="Fill-126" fill="#DCCC3A"></path>
                    <path d="M1245.8752,86.9684814 C1245.8752,87.522063 1245.43382,87.9713467 1244.87207,87.9713467 C1244.32036,87.9713467 1243.86895,87.522063 1243.86895,86.9684814 C1243.86895,86.4138968 1244.32036,85.965616 1244.87207,85.965616 C1245.43382,85.965616 1245.8752,86.4138968 1245.8752,86.9684814" id="Fill-127" fill="#DCCC3A"></path>
                    <path d="M1173.65055,290.550143 C1173.65055,291.103725 1173.20917,291.553009 1172.64743,291.553009 C1172.09571,291.553009 1171.64431,291.103725 1171.64431,290.550143 C1171.64431,289.995559 1172.09571,289.547278 1172.64743,289.547278 C1173.20917,289.547278 1173.65055,289.995559 1173.65055,290.550143" id="Fill-128" fill="#DCCC3A"></path>
                    <path d="M945.942278,270.492837 C945.942278,271.046418 945.500905,271.495702 944.939158,271.495702 C944.387441,271.495702 943.936037,271.046418 943.936037,270.492837 C943.936037,269.938252 944.387441,269.489971 944.939158,269.489971 C945.500905,269.489971 945.942278,269.938252 945.942278,270.492837" id="Fill-129" fill="#DCCC3A"></path>
                    <path d="M407.271786,262.469914 C407.271786,263.023496 406.823392,263.472779 406.268666,263.472779 C405.714944,263.472779 405.265546,263.023496 405.265546,262.469914 C405.265546,261.91533 405.714944,261.467049 406.268666,261.467049 C406.823392,261.467049 407.271786,261.91533 407.271786,262.469914" id="Fill-130" fill="#DCCC3A"></path>
                    <path d="M605.889571,20.7793696 C605.889571,21.3329513 605.441176,21.782235 604.886451,21.782235 C604.332729,21.782235 603.883331,21.3329513 603.883331,20.7793696 C603.883331,20.2247851 604.332729,19.7765043 604.886451,19.7765043 C605.441176,19.7765043 605.889571,20.2247851 605.889571,20.7793696" id="Fill-131" fill="#DCCC3A"></path>
                    <path d="M573.789727,1.72492837 C573.789727,2.27851003 573.341332,2.7277937 572.786607,2.7277937 C572.232885,2.7277937 571.783487,2.27851003 571.783487,1.72492837 C571.783487,1.17034384 572.232885,0.722063037 572.786607,0.722063037 C573.341332,0.722063037 573.789727,1.17034384 573.789727,1.72492837" id="Fill-132" fill="#DCCC3A"></path>
                    <path d="M1190.70359,304.590258 C1190.70359,305.14384 1190.26222,305.593123 1189.70047,305.593123 C1189.14875,305.593123 1188.69735,305.14384 1188.69735,304.590258 C1188.69735,304.035673 1189.14875,303.587393 1189.70047,303.587393 C1190.26222,303.587393 1190.70359,304.035673 1190.70359,304.590258" id="Fill-133" fill="#DCCC3A"></path>
                    <path d="M512.599399,157.169054 C512.599399,157.722636 512.151005,158.17192 511.596279,158.17192 C511.042557,158.17192 510.593159,157.722636 510.593159,157.169054 C510.593159,156.61447 511.042557,156.166189 511.596279,156.166189 C512.151005,156.166189 512.599399,156.61447 512.599399,157.169054" id="Fill-134" fill="#DCCC3A"></path>
                    <path d="M1067.31981,296.065903 C1067.31981,297.45086 1066.20635,298.573066 1064.81201,298.573066 C1063.42771,298.573066 1062.30421,297.45086 1062.30421,296.065903 C1062.30421,294.680946 1063.42771,293.558739 1064.81201,293.558739 C1066.20635,293.558739 1067.31981,294.680946 1067.31981,296.065903" id="Fill-135" fill="#DCCC3A"></path>
                    <path d="M1118.9805,108.530086 L987.38117,210.718052 C987.160484,210.887536 986.849516,210.848424 986.678986,210.628797 C986.508456,210.410172 986.54858,210.095272 986.769267,209.925788 L986.769267,209.923782 L1118.9805,108.530086" id="Fill-137" fill="#DCE27E"></path>
                </g>
            </g>
        </g>
    </g>
</svg>
